<svg width="1307" height="358" viewBox="0 0 1307 358" fill="none" xmlns="http://www.w3.org/2000/svg">
<path d="M500.832 237.687L495.266 220.864H463.391L457.699 237.687H433.539L467.185 146.867H493.369L526.635 237.687H500.832ZM479.581 173.177L469.842 202.017H489.068L479.581 173.177ZM594.819 214.539C594.819 229.592 583.688 238.952 563.197 238.952C542.706 238.952 531.574 229.339 530.183 213.654H550.927C550.927 219.346 556.114 223.014 563.576 223.014C568.51 223.014 572.937 221.876 572.937 218.334C572.937 215.298 570.66 214.033 565.98 213.148L552.572 210.745C540.682 208.594 533.092 201.764 533.092 190.759C533.092 177.604 544.223 168.371 562.059 168.371C579.894 168.371 592.29 177.857 593.554 193.036H572.81C572.304 187.597 568.13 184.308 562.185 184.308C557.125 184.308 553.837 185.7 553.837 188.735C553.837 191.645 555.987 192.53 560.288 193.289L574.708 195.945C587.862 198.349 594.819 204.8 594.819 214.539ZM665.599 214.539C665.599 229.592 654.468 238.952 633.977 238.952C613.486 238.952 602.354 229.339 600.963 213.654H621.707C621.707 219.346 626.893 223.014 634.356 223.014C639.289 223.014 643.717 221.876 643.717 218.334C643.717 215.298 641.44 214.033 636.76 213.148L623.352 210.745C611.462 208.594 603.872 201.764 603.872 190.759C603.872 177.604 615.003 168.371 632.838 168.371C650.674 168.371 663.07 177.857 664.334 193.036H643.59C643.084 187.597 638.91 184.308 632.965 184.308C627.905 184.308 624.617 185.7 624.617 188.735C624.617 191.645 626.767 192.53 631.068 193.289L645.487 195.945C658.642 198.349 665.599 204.8 665.599 214.539ZM706.781 238.825C685.783 238.825 671.743 224.659 671.743 203.535C671.743 183.17 686.416 168.371 706.654 168.371C729.169 168.371 744.222 186.712 740.3 209.1H694.132C695.27 217.702 699.318 222.002 706.275 222.002C712.346 222.002 716.394 219.472 718.291 214.539H739.921C735.747 230.098 723.73 238.825 706.781 238.825ZM706.148 184.308C699.697 184.308 695.903 187.977 694.385 195.566H717.153C716.9 188.735 712.599 184.308 706.148 184.308ZM795.822 216.437V235.284C791.015 237.94 786.461 238.952 780.39 238.952C765.085 238.952 756.104 229.845 756.104 214.286V188.482H743.455V169.635H756.104V149.65H777.734V169.635H796.328V188.482H777.734V209.227C777.734 215.804 780.516 218.84 786.461 218.84C790.003 218.84 793.418 217.955 795.822 216.437ZM875.054 239.584C849.25 239.584 828.885 218.84 828.885 192.151C828.885 165.588 849.25 144.97 875.054 144.97C899.972 144.97 919.199 161.54 922.108 185.573H896.81C894.913 174.189 886.438 166.347 875.307 166.347C861.899 166.347 853.424 176.719 853.424 192.151C853.424 207.709 861.899 218.208 875.307 218.208C886.311 218.208 894.786 210.365 896.81 198.855H922.108C919.072 223.141 899.972 239.584 875.054 239.584ZM954.359 201.89V237.687H932.729V146.867H954.359V176.972C959.292 171.659 964.225 168.371 972.826 168.371C986.234 168.371 995.721 177.351 995.721 193.922V237.687H974.091V201.131C974.091 192.53 971.055 187.85 964.478 187.85C959.165 187.85 954.359 191.645 954.359 201.89ZM1049.16 237.687V231.11C1044.35 236.549 1038.41 238.952 1029.68 238.952C1015.51 238.952 1006.03 230.477 1006.03 217.575C1006.03 204.294 1016.78 197.084 1036.26 197.084C1039.93 197.084 1043.34 197.337 1046.25 197.843V194.554C1046.25 188.609 1042.83 185.32 1036.76 185.32C1030.82 185.32 1027.28 188.609 1026.52 194.554H1007.04C1008.3 178.743 1020.07 168.371 1036.89 168.371C1055.61 168.371 1066.61 178.49 1066.61 195.692V237.687H1049.16ZM1026.39 216.943C1026.39 221.37 1029.43 224.026 1034.74 224.026C1041.95 224.026 1046.25 220.611 1046.25 215.045V210.745C1042.96 210.112 1040.43 209.859 1037.65 209.859C1030.31 209.859 1026.39 212.263 1026.39 216.943ZM1104.63 153.824C1104.63 160.908 1098.94 166.094 1090.72 166.094C1082.5 166.094 1076.81 160.908 1076.81 153.824C1076.81 146.614 1082.5 141.428 1090.72 141.428C1098.94 141.428 1104.63 146.614 1104.63 153.824ZM1101.72 237.687H1080.09V169.635H1101.72V237.687ZM1137.55 201.89V237.687H1115.92V169.635H1135.78V177.857C1141.09 171.912 1147.41 168.371 1156.01 168.371C1169.42 168.371 1178.91 177.351 1178.91 193.922V237.687H1157.28V201.131C1157.28 192.53 1154.24 187.85 1147.67 187.85C1142.35 187.85 1137.55 191.645 1137.55 201.89Z" fill="black"/>
<path d="M158.546 192.051H122.605C112.739 192.051 103.762 196.098 97.2362 202.624C90.7175 209.149 86.6637 218.126 86.6637 227.992C86.6637 237.859 90.7175 246.836 97.2362 253.361C103.762 259.887 112.739 263.934 122.605 263.934C132.471 263.934 141.448 259.887 147.974 253.361C154.499 246.836 158.546 237.859 158.546 227.992V192.051ZM122.605 154.338H196.267V227.992C196.267 248.268 187.982 266.691 174.639 280.027C161.303 293.37 142.881 301.654 122.605 301.654C102.329 301.654 83.9068 293.37 70.5706 280.027C57.2276 266.691 48.9434 248.268 48.9434 227.992C48.9434 207.716 57.2276 189.301 70.5706 175.958C83.9068 162.615 102.329 154.338 122.605 154.338Z" fill="black"/>
<path d="M307.084 154.337H343.025C352.892 154.337 361.869 150.284 368.394 143.765C374.913 137.239 378.967 128.256 378.967 118.396C378.967 108.537 374.913 99.5462 368.394 93.0275C361.869 86.502 352.892 82.4549 343.025 82.4549C333.159 82.4549 324.182 86.502 317.657 93.0275C311.131 99.5462 307.084 108.53 307.084 118.396V154.337ZM343.025 192.051H269.364V118.396C269.364 98.1202 277.648 79.698 290.991 66.355C304.334 53.012 322.749 44.7346 343.025 44.7346C363.301 44.7346 381.723 53.0188 395.06 66.355C408.403 79.698 416.68 98.1202 416.68 118.396C416.68 138.672 408.403 157.088 395.06 170.431C381.723 183.774 363.301 192.051 343.025 192.051Z" fill="black"/>
<path d="M307.085 154.338H343.026C352.892 154.338 361.869 150.284 368.395 143.765C371.946 140.207 374.764 135.929 376.597 131.169H415.567C412.892 146.345 405.538 159.953 395.06 170.431C381.724 183.774 363.302 192.051 343.026 192.051H289.783V131.169H307.085V154.338Z" fill="black"/>
<path d="M168.772 192.051H289.783V154.338H168.772V192.051Z" fill="black"/>
<path d="M289.782 192.051H196.266V154.338H289.782V192.051Z" fill="black"/>
<path d="M232.818 264.544C242.848 264.544 251.981 260.429 258.615 253.795C265.249 247.161 269.364 238.028 269.364 227.992V118.396C269.364 108.36 265.249 99.2269 258.615 92.5927C251.981 85.9586 242.848 81.8436 232.812 81.8436C222.775 81.8436 213.649 85.9586 207.015 92.5927C200.381 99.2269 196.266 108.36 196.266 118.396V227.992C196.266 238.028 200.381 247.161 207.015 253.795C213.649 260.429 222.782 264.544 232.818 264.544ZM307.084 118.396V227.992C307.084 248.438 298.732 267.009 285.281 280.461C271.829 293.913 253.257 302.265 232.818 302.265C212.379 302.265 193.801 293.913 180.349 280.461C166.898 267.009 158.546 248.438 158.546 227.992V118.396C158.546 97.9503 166.898 79.3788 180.349 65.9271C193.801 52.4754 212.373 44.1233 232.812 44.1233C253.251 44.1233 271.829 52.4754 285.281 65.9271C298.732 79.3788 307.084 97.9503 307.084 118.396Z" fill="black"/>
<path d="M221.125 83.7792C215.761 85.6126 210.947 88.6614 207.015 92.593C200.381 99.2272 196.266 108.36 196.266 118.396V154.338H158.546V118.396C158.546 97.9506 166.898 79.3791 180.349 65.9274C191.187 55.09 205.345 47.5663 221.125 45.0471V83.7792Z" fill="black"/>
<path d="M160.76 100.402H201.047C202.683 97.5361 204.693 94.915 207.016 92.5927C213.65 85.9586 222.783 81.8436 232.812 81.8436C242.841 81.8436 251.981 85.9586 258.615 92.5927C265.249 99.2269 269.364 108.36 269.364 118.396C269.364 99.5053 276.555 82.2239 288.33 69.1593C287.345 68.0524 286.327 66.9728 285.281 65.9271C271.829 52.4754 253.258 44.1233 232.812 44.1233C212.366 44.1233 193.802 52.4754 180.35 65.9271C170.979 75.2978 164.08 87.1537 160.76 100.402Z" fill="black"/>
<path d="M221.125 261.72C215.761 259.887 210.947 256.838 207.015 252.906C200.381 246.272 196.259 237.132 196.259 227.103V191.162H158.546V227.103C158.546 247.549 166.898 266.12 180.349 279.572C191.18 290.409 205.338 297.933 221.125 300.446V261.72Z" fill="black"/>
<path d="M50.1328 245.545H90.4199C92.0564 248.404 94.0663 251.025 96.3886 253.348C103.023 259.982 112.156 264.097 122.185 264.097C132.214 264.097 141.354 259.982 147.988 253.348C154.623 246.713 158.737 237.58 158.737 227.551C158.737 246.442 165.928 263.716 177.703 276.781C176.718 277.888 175.7 278.967 174.654 280.013C161.202 293.465 142.631 301.817 122.185 301.817C101.739 301.817 83.1678 293.465 69.7161 280.013C60.3455 270.643 53.4533 258.787 50.1328 245.545Z" fill="black"/>
</svg>
