<svg width="1000" height="1000" viewBox="0 0 1000 1000" fill="none" xmlns="http://www.w3.org/2000/svg">
<path d="M345.304 517.133H270.438C249.886 517.133 231.187 525.563 217.594 539.156C204.016 552.749 195.572 571.448 195.572 591.999C195.572 612.551 204.016 631.25 217.594 644.843C231.187 658.435 249.886 666.865 270.438 666.865C290.989 666.865 309.688 658.435 323.281 644.843C336.874 631.25 345.304 612.551 345.304 591.999V517.133ZM270.438 438.576H423.875V591.999C423.875 634.234 406.619 672.608 378.826 700.387C351.046 728.181 312.673 745.437 270.438 745.437C228.203 745.437 189.829 728.181 162.05 700.387C134.256 672.608 117 634.234 117 591.999C117 549.764 134.256 511.405 162.05 483.611C189.829 455.818 228.203 438.576 270.438 438.576Z" fill="white"/>
<path d="M654.71 438.577H729.576C750.128 438.577 768.827 430.133 782.42 416.554C795.998 402.962 804.442 384.249 804.442 363.711C804.442 343.174 795.998 324.446 782.42 310.868C768.827 297.275 750.128 288.845 729.576 288.845C709.025 288.845 690.326 297.275 676.733 310.868C663.14 324.446 654.71 343.159 654.71 363.711V438.577ZM729.576 517.135H576.139V363.711C576.139 321.476 593.395 283.103 621.188 255.309C648.982 227.515 687.341 210.273 729.576 210.273C771.811 210.273 810.185 227.529 837.964 255.309C865.758 283.103 883 321.476 883 363.711C883 405.946 865.758 444.306 837.964 472.099C810.185 499.893 771.811 517.135 729.576 517.135Z" fill="white"/>
<path d="M654.711 438.576H729.577C750.128 438.576 768.827 430.132 782.42 416.553C789.817 409.142 795.687 400.231 799.506 390.315H880.681C875.108 421.928 859.789 450.273 837.965 472.098C810.185 499.892 771.812 517.134 729.577 517.134H618.671V390.315H654.711V438.576Z" fill="white"/>
<path d="M366.604 517.133H618.67V438.576H366.604V517.133Z" fill="white"/>
<path d="M618.67 517.133H423.875V438.576H618.67V517.133Z" fill="white"/>
<path d="M500.014 668.139C520.905 668.139 539.929 659.568 553.748 645.749C567.567 631.93 576.139 612.906 576.139 592V363.711C576.139 342.805 567.567 323.781 553.748 309.962C539.929 296.143 520.905 287.572 500 287.572C479.094 287.572 460.085 296.143 446.265 309.962C432.446 323.781 423.875 342.805 423.875 363.711V592C423.875 612.906 432.446 631.93 446.265 645.749C460.085 659.568 479.109 668.139 500.014 668.139ZM654.711 363.711V592C654.711 634.589 637.313 673.274 609.293 701.294C581.273 729.313 542.588 746.711 500.014 746.711C457.44 746.711 418.741 729.313 390.721 701.294C362.701 673.274 345.303 634.589 345.303 592V363.711C345.303 321.122 362.701 282.437 390.721 254.418C418.741 226.398 457.425 209 500 209C542.574 209 581.273 226.398 609.293 254.418C637.313 282.437 654.711 321.122 654.711 363.711Z" fill="white"/>
<path d="M475.657 291.603C464.483 295.422 454.455 301.773 446.265 309.962C432.446 323.781 423.875 342.806 423.875 363.711V438.577H345.303V363.711C345.303 321.122 362.701 282.438 390.721 254.418C413.295 231.843 442.786 216.171 475.657 210.924V291.603Z" fill="white"/>
<path d="M349.915 326.228H433.833C437.242 320.259 441.428 314.8 446.266 309.962C460.085 296.143 479.109 287.572 500 287.572C520.891 287.572 539.93 296.143 553.749 309.962C567.568 323.781 576.139 342.805 576.139 363.711C576.139 324.361 591.118 288.364 615.644 261.15C613.593 258.845 611.472 256.596 609.293 254.418C581.273 226.398 542.589 209 500 209C457.411 209 418.741 226.398 390.721 254.418C371.202 273.937 356.831 298.633 349.915 326.228Z" fill="white"/>
<path d="M475.657 662.255C464.483 658.436 454.455 652.085 446.265 643.896C432.446 630.077 423.861 611.038 423.861 590.147V515.281H345.303V590.147C345.303 632.736 362.701 671.421 390.721 699.441C413.281 722.015 442.772 737.687 475.657 742.92V662.255Z" fill="white"/>
<path d="M119.477 628.564H203.395C206.804 634.518 210.99 639.978 215.828 644.815C229.647 658.634 248.671 667.206 269.562 667.206C290.453 667.206 309.492 658.634 323.311 644.815C337.13 630.996 345.701 611.972 345.701 591.081C345.701 630.431 360.68 666.414 385.206 693.627C383.155 695.933 381.034 698.182 378.855 700.36C350.835 728.38 312.151 745.778 269.562 745.778C226.973 745.778 188.289 728.38 160.269 700.36C140.75 680.841 126.393 656.145 119.477 628.564Z" fill="white"/>
</svg>
